<?xml version="1.0" standalone="no"?>
<!DOCTYPE svg PUBLIC "-//W3C//DTD SVG 20010904//EN"
 "http://www.w3.org/TR/2001/REC-SVG-20010904/DTD/svg10.dtd">
<svg version="1.0" xmlns="http://www.w3.org/2000/svg"
 width="200.000000pt" height="200.000000pt" viewBox="0 0 200.000000 200.000000"
 preserveAspectRatio="xMidYMid meet">
<metadata>
Created by potrace 1.11, written by Peter Selinger 2001-2013
</metadata>
<g transform="translate(0.000000,200.000000) scale(0.100000,-0.100000)"
fill="#000000" stroke="none">
<path d="M865 1623 c-55 -8 -140 -34 -171 -54 -36 -22 -50 -52 -59 -126 l-7
-51 -86 -27 c-196 -61 -347 -167 -409 -288 -23 -43 -27 -65 -27 -132 -1 -68 3
-87 26 -130 31 -56 77 -108 134 -151 22 -16 45 -36 51 -46 22 -29 136 -109
203 -143 155 -78 324 -110 535 -102 253 11 461 89 614 231 25 24 74 69 109
101 86 80 117 146 116 245 0 58 -5 85 -23 120 -66 127 -215 231 -426 298 l-90
28 -15 66 c-17 74 -29 92 -79 117 -76 39 -279 61 -396 44z m-250 -295 c-6 -30
-13 -72 -21 -129 -7 -55 -7 -54 -66 -101 -89 -72 -111 -167 -58 -251 77 -121
250 -179 540 -180 221 0 379 40 472 122 42 37 78 104 78 147 -1 64 -59 149
-120 174 -22 9 -28 22 -44 93 -20 89 -30 147 -24 147 2 0 39 -12 83 -26 174
-56 324 -160 375 -260 32 -64 35 -169 5 -229 -44 -92 -178 -193 -329 -250
-165 -62 -286 -80 -531 -79 -149 0 -198 4 -285 23 -271 59 -451 165 -521 306
-27 55 -31 73 -27 122 11 151 150 280 393 365 44 15 81 27 83 28 1 0 0 -10 -3
-22z m301 -105 c31 -73 53 -93 104 -93 47 0 73 28 94 102 17 59 36 78 78 78
32 -1 56 -21 69 -59 12 -35 49 -56 80 -46 14 5 20 0 23 -17 3 -13 12 -56 22
-97 25 -107 22 -153 -10 -200 -50 -72 -177 -110 -366 -109 -249 1 -410 75
-410 188 0 20 9 85 20 145 11 60 20 110 20 111 0 1 13 -4 30 -12 34 -17 52 -9
91 40 12 16 36 34 53 41 46 20 71 3 102 -72z m-351 -702 c37 -12 82 -24 99
-26 17 -3 38 -8 46 -10 47 -13 155 -20 305 -19 183 0 296 16 429 58 42 13 76
22 76 20 0 -9 -123 -64 -195 -87 -110 -34 -140 -39 -300 -43 -201 -4 -358 28
-495 102 -36 19 -58 33 -49 30 9 -2 47 -14 84 -25z"/>
</g>
</svg>
